<svg xmlns="http://www.w3.org/2000/svg" viewBox="0 0 100 100">
  <path fill="#3b82f6" d="M85.5,24.5c-2.5,0-5,0.5-7.5,1.5c-2.5,1-4.5,2.5-6,4.5c-1.5,2-2.5,4.5-3,7c-0.5,2.5-0.5,5,0,7.5
    c0.5,2.5,1.5,4.5,3,6c1.5,1.5,3.5,2.5,6,3c2.5,0.5,5,0.5,7.5,0c2.5-0.5,4.5-1.5,6-3c1.5-1.5,2.5-3.5,3-6c0.5-2.5,0.5-5,0-7.5
    c-0.5-2.5-1.5-5-3-7c-1.5-2-3.5-3.5-6-4.5C90.5,25,88,24.5,85.5,24.5z M83,40c0,1.5-0.5,3-1.5,4c-1,1-2.5,1.5-4,1.5
    c-1.5,0-3-0.5-4-1.5c-1-1-1.5-2.5-1.5-4c0-1.5,0.5-3,1.5-4c1-1,2.5-1.5,4-1.5c1.5,0,3,0.5,4,1.5C82.5,37,83,38.5,83,40z"/>
  <path fill="#3b82f6" d="M75,35c-5,0-10,2-14,6c-4,4-7,9-8,15c-1,6,1,12,5,16c4,4,10,6,16,6c3,0,6-1,8-2.5c2-1.5,3.5-3.5,4.5-6
    c1-2.5,1-5,0-7.5c-1-2.5-2.5-4.5-4.5-6c-2-1.5-4-2-6-2c-1.5,0-3,0.5-4,1.5c-1,1-1.5,2.5-1.5,4c0,1.5,0.5,3,1.5,4c1,1,2.5,1.5,4,1.5
    c2,0,3.5-1,4.5-2.5c1-1.5,1.5-3.5,1.5-5.5c0-3-1.5-5.5-4-7.5c-2.5-2-5.5-3-9-3z M50,55c0-2,1-3.5,2.5-4.5
    c1.5-1,3.5-1,5,0c1.5,1,2.5,2.5,2.5,4.5c0,2-1,3.5-2.5,4.5c-1.5,1-3.5,1-5,0C51,58.5,50,57,50,55z"/>
</svg>
